<svg xmlns="http://www.w3.org/2000/svg" viewBox="0 0 64 64"><defs><style>.cls-2{fill:#e1d3ce}.cls-4,.cls-6{fill:#ff9100;stroke:#000;stroke-linecap:round;stroke-linejoin:round;stroke-width:2px}.cls-6{fill:none}</style></defs><g style="isolation:isolate"><g id="Layer_1" data-name="Layer 1"><g id="Vector"><path class="cls-2" d="M56.71 26v22.55a9.1 9.1 0 0 1-9.09 9.09h-3.73a7.55 7.55 0 0 0 .61-3v-1h3.12a5.09 5.09 0 0 0 5.08-5.08V26a5.09 5.09 0 0 0-5.08-5.08H44.5v-4h3.12A9.1 9.1 0 0 1 56.71 26z"/><path d="M44.5 20.17v34.5a7.55 7.55 0 0 1-.61 3 7.65 7.65 0 0 1-7 4.68H15a7.66 7.66 0 0 1-7.66-7.65V20.17h26.34v7.29a2.81 2.81 0 0 0 0 .29 2.76 2.76 0 0 0 1.4 2.25 1.49 1.49 0 0 0 .24.14l.25.1.13.05.26.06a.64.64 0 0 0 .2 0h.23a2.84 2.84 0 0 0 3-2.84v-7.34z" style="fill:#f96a00"/><rect class="cls-4" x="13.25" y="25.95" width="5.64" height="28.67" rx="2.81"/><rect class="cls-4" x="23.07" y="25.95" width="5.64" height="28.67" rx="2.81"/><path class="cls-4" d="M38.53 29.62V51.8a2.82 2.82 0 1 1-5.64 0v-23a2.89 2.89 0 0 1 .79-2v.66a2.81 2.81 0 0 0 0 .29 2.76 2.76 0 0 0 1.4 2.25 1.49 1.49 0 0 0 .24.14l.25.1.13.05.26.06a.64.64 0 0 0 .2 0h.23a2.86 2.86 0 0 0 2.14-.73z"/><path class="cls-2" d="M33.68 13.89v6.28H7.29v-4.48a3.49 3.49 0 0 1 3.47-3.46H32a1.66 1.66 0 0 1 1.68 1.66zM44.5 15.69v4.48h-5.13v-6.28A1.67 1.67 0 0 1 41 12.23a3.56 3.56 0 0 1 .73.09 3.46 3.46 0 0 1 2.77 3.37z"/><path d="M41.76 12.32a3.56 3.56 0 0 0-.73-.09 1.67 1.67 0 0 0-1.66 1.66V27.6a2.84 2.84 0 0 1-3 2.84h-.07a.41.41 0 0 1-.16 0 .64.64 0 0 1-.2 0l-.26-.06-.13-.05-.25-.1-.22-.23a3 3 0 0 1-1.39-2.28 2.81 2.81 0 0 1 0-.29V13.89A1.66 1.66 0 0 0 32 12.23H10.76a3.46 3.46 0 0 0-1.8.51 5.26 5.26 0 0 1-.33-1.63 5.31 5.31 0 0 1 7.21-5.23 5.75 5.75 0 0 1 11-.23 5.28 5.28 0 0 1 3.08-1 5.35 5.35 0 0 1 3.38 1.21 5.32 5.32 0 0 1 5.55-2.39A5.26 5.26 0 0 1 43 7.28a5.35 5.35 0 0 1-1.24 5.04z" style="fill:#ffe8e1"/></g><g id="Line"><path class="cls-6" d="M56.71 26v22.55a9.1 9.1 0 0 1-9.09 9.09h-3.73a7.55 7.55 0 0 0 .61-3v-1h3.12a5.09 5.09 0 0 0 5.08-5.08V26a5.09 5.09 0 0 0-5.08-5.08H44.5v-4h3.12A9.1 9.1 0 0 1 56.71 26z"/><path class="cls-6" d="M44.5 20.17v34.5a7.55 7.55 0 0 1-.61 3 7.65 7.65 0 0 1-7 4.68H15a7.66 7.66 0 0 1-7.66-7.65V20.17h26.34v7.29a2.81 2.81 0 0 0 0 .29 2.76 2.76 0 0 0 1.4 2.25 1.49 1.49 0 0 0 .24.14l.25.1.13.05.26.06a.64.64 0 0 0 .2 0h.23a2.84 2.84 0 0 0 3-2.84v-7.34z"/><rect class="cls-6" x="13.25" y="25.95" width="5.64" height="28.67" rx="2.81"/><rect class="cls-6" x="23.07" y="25.95" width="5.64" height="28.67" rx="2.81"/><path class="cls-6" d="M38.53 29.62V51.8a2.82 2.82 0 1 1-5.64 0v-23a2.89 2.89 0 0 1 .79-2v.66a2.81 2.81 0 0 0 0 .29 2.76 2.76 0 0 0 1.4 2.25 1.49 1.49 0 0 0 .24.14l.25.1.13.05.26.06a.64.64 0 0 0 .2 0h.23a2.86 2.86 0 0 0 2.14-.73zM33.68 13.89v6.28H7.29v-4.48a3.49 3.49 0 0 1 3.47-3.46H32a1.66 1.66 0 0 1 1.68 1.66zM44.5 15.69v4.48h-5.13v-6.28A1.67 1.67 0 0 1 41 12.23a3.56 3.56 0 0 1 .73.09 3.46 3.46 0 0 1 2.77 3.37z"/><path class="cls-6" d="M41.76 12.32a3.56 3.56 0 0 0-.73-.09 1.67 1.67 0 0 0-1.66 1.66V27.6a2.84 2.84 0 0 1-3 2.84h-.07a.41.41 0 0 1-.16 0 .64.64 0 0 1-.2 0l-.26-.06-.13-.05-.25-.1-.22-.23a3 3 0 0 1-1.39-2.28 2.81 2.81 0 0 1 0-.29V13.89A1.66 1.66 0 0 0 32 12.23H10.76a3.46 3.46 0 0 0-1.8.51 5.26 5.26 0 0 1-.33-1.63 5.31 5.31 0 0 1 7.21-5.23 5.75 5.75 0 0 1 11-.23 5.28 5.28 0 0 1 3.08-1 5.35 5.35 0 0 1 3.38 1.21 5.32 5.32 0 0 1 5.55-2.39A5.26 5.26 0 0 1 43 7.28a5.35 5.35 0 0 1-1.24 5.04z"/></g><g id="Shadow" style="opacity:.25;mix-blend-mode:multiply"><path d="M39.5 20.92v32.71h3.12a5.16 5.16 0 0 0 1.88-.37v-32a5.16 5.16 0 0 0-1.88-.37z"/><path d="M44.5 16.91v-1.22a3.46 3.46 0 0 0-2.74-3.37 5.35 5.35 0 0 0 1.21-5A5.33 5.33 0 0 0 35.35 4 5.24 5.24 0 0 1 38 7.28a5.35 5.35 0 0 1-1.21 5 3.46 3.46 0 0 1 2.74 3.37l.64 5.23h4.33c.13-2 .73-3.73 1.75-4 1.26-.34 3.38 1.58 4.56 5.17A5.05 5.05 0 0 1 52.7 26v22.55a5.05 5.05 0 0 1-1.89 3.92c-.6 3.52-2.77 5.44-4.13 5.17-1.1-.22-2-2-2.18-4h-5c-.06.45-.92 6.75-5.37 8.34a6.33 6.33 0 0 1-2.29.35h5a7.65 7.65 0 0 0 7-4.68h3.73a9.1 9.1 0 0 0 9.09-9.09V26a9.1 9.1 0 0 0-9.09-9.09z"/></g><g style="mix-blend-mode:overlay"><path d="M15 62.32h5a7.66 7.66 0 0 1-7.66-7.65v-39A3.45 3.45 0 0 1 14 12.74a5.26 5.26 0 0 1-.33-1.63 5.31 5.31 0 0 1 7.21-5.23 5.71 5.71 0 0 1 3-3.61 5.68 5.68 0 0 0-2.5-.59 5.74 5.74 0 0 0-5.54 4.2 5.31 5.31 0 0 0-7.21 5.23A5.26 5.26 0 0 0 9 12.74a3.45 3.45 0 0 0-1.67 2.95v39A7.66 7.66 0 0 0 15 62.32z" style="fill:#fff;mix-blend-mode:overlay" id="Highligth"/></g></g></g></svg>