<svg id="Icons" xmlns="http://www.w3.org/2000/svg" viewBox="0 0 512 512"><defs><style>.cls-5{fill:#dd8c29}.cls-6{fill:#efb732}.cls-7{fill:#962a11}.cls-8{fill:#fff}.cls-12{fill:#c44a1a}.cls-13{fill:#ed72ab}</style></defs><circle cx="256" cy="256" r="255.98" style="fill:#b82065"/><path d="M473 120.11A255.65 255.65 0 0 0 276.41.83C135.48-10.44 12.1 94.66.83 235.58A254.75 254.75 0 0 0 30.6 377.41a77.39 77.39 0 0 1 15.72-1.72c28-.13 57.81 13.28 82.83.63 17.16-8.66 26.73-27.6 31.35-46.26s5.45-38.21 11.08-56.6a112.53 112.53 0 0 1 139-75.08c20.44 6 42.34 17.68 61.62 8.63 26.2-12.32 26.67-54 52.54-67 8.34-4.2 18-4.6 26.92-7.35A54.55 54.55 0 0 0 473 120.11z" style="fill:#d7156f"/><path d="M314.77 222.15V401A21.81 21.81 0 0 1 293 422.81h-74A21.82 21.82 0 0 1 197.23 401V222.15a29.92 29.92 0 0 1 22.49-29 15.23 15.23 0 0 0 11.46-14l4.3-79h-.61a6.61 6.61 0 0 1-6.43-8.15l4.44-19.13a6.62 6.62 0 0 1 6.44-5.13h33.36a6.62 6.62 0 0 1 6.45 5.13L283.58 92a6.62 6.62 0 0 1-6.45 8.12h-.61l4.3 79a15.22 15.22 0 0 0 11.46 14 29.91 29.91 0 0 1 22.49 29.03z" style="fill:#6b250c"/><path d="M314.77 222.15V401A21.81 21.81 0 0 1 293 422.81h-53.4A21.81 21.81 0 0 1 217.8 401V228.89a22.47 22.47 0 0 1 22.49-22.5 15.27 15.27 0 0 0 11.46-14L256 94.51a.25.25 0 0 0-.26-.24 6.87 6.87 0 0 1-6.7-8.44l4.19-18h19.42a6.62 6.62 0 0 1 6.45 5.13L283.58 92a6.62 6.62 0 0 1-6.45 8.12h-.61l4.3 79a15.22 15.22 0 0 0 11.46 14 29.91 29.91 0 0 1 22.49 29.03z" style="fill:#7a2b13"/><path class="cls-5" d="M286.05 63.67v3.7a5.52 5.52 0 0 1-5.51 5.53h-49.06a5.54 5.54 0 0 1-5.48-5.53v-3.7a5.53 5.53 0 0 1 5.53-5.52h49.06a5.51 5.51 0 0 1 5.46 5.52z"/><path class="cls-6" d="M286.05 63.67v3.7a5.52 5.52 0 0 1-5.51 5.53h-37.12a5.51 5.51 0 0 1-5.51-5.53v-3.7a5.5 5.5 0 0 1 5.51-5.52h37.12a5.51 5.51 0 0 1 5.51 5.52z"/><ellipse class="cls-7" cx="283.69" cy="207.67" rx="10.96" ry="18.34" transform="rotate(-45 283.694 207.68)"/><ellipse class="cls-7" cx="301.79" cy="238.15" rx="7.79" ry="12.61" transform="rotate(-11.78 301.663 238.072)"/><path class="cls-7" d="M217.8 387.39H262a6.8 6.8 0 0 1 6.8 6.8A6.8 6.8 0 0 1 262 401h-44.2v-13.61z"/><rect class="cls-7" x="278.08" y="387.39" width="25.25" height="13.6" rx="6.8"/><path class="cls-7" d="M271.74 111.45a5.69 5.69 0 0 1 5.69 5.38l2.21 40.67a5.69 5.69 0 0 1-5.69 6h-2.21a5.69 5.69 0 0 1-5.69-5.69v-40.67a5.69 5.69 0 0 1 5.69-5.69z"/><path class="cls-6" d="M314.77 266.51v95.43H197.23v-95.43l20.57-11.57 38.2-21.5 58.77 33.07z"/><path class="cls-5" d="M217.8 254.94v107h-20.57v-95.43l20.57-11.57z"/><path class="cls-8" d="M314.77 288.53H291.4c-5.67-15.21-19.4-25.93-35.4-25.93s-29.73 10.72-35.4 25.93h-23.37v31.17h23.37c5.67 15.2 19.38 25.92 35.4 25.92s29.73-10.72 35.4-25.92h23.37z"/><path style="fill:#ebd9ea" d="M197.23 288.53h20.57v31.17h-20.57z"/><ellipse cx="256" cy="304.11" rx="27.69" ry="30.1" style="fill:#f39e22"/><ellipse cx="256" cy="304.11" rx="20.67" ry="22.47" style="fill:#f9c744"/><rect class="cls-12" x="244.38" y="291.15" width="22.97" height="6.09" rx="3.04"/><rect class="cls-12" x="236.85" y="302.13" width="38.05" height="6.09" rx="3.04"/><path class="cls-8" d="M462.62 214.78h-10.57a13.31 13.31 0 0 1-13.31-13.32v-10.57a5.78 5.78 0 0 0-5.78-5.78 5.78 5.78 0 0 0-5.78 5.78v10.57a13.31 13.31 0 0 1-13.31 13.32H403.3a5.78 5.78 0 0 0-5.78 5.78 5.78 5.78 0 0 0 5.78 5.78h10.57a13.31 13.31 0 0 1 13.31 13.31v10.57A5.78 5.78 0 0 0 433 256a5.78 5.78 0 0 0 5.78-5.78v-10.57a13.31 13.31 0 0 1 13.31-13.31h10.57a5.78 5.78 0 0 0 5.78-5.78 5.77 5.77 0 0 0-5.82-5.78z"/><path class="cls-13" d="M122 195.66h-10.59a13.31 13.31 0 0 1-13.31-13.31v-10.57a5.78 5.78 0 0 0-5.78-5.78 5.78 5.78 0 0 0-5.78 5.78v10.57a13.31 13.31 0 0 1-13.31 13.31H62.66a5.78 5.78 0 0 0-5.79 5.78 5.78 5.78 0 0 0 5.79 5.78h10.57a13.31 13.31 0 0 1 13.31 13.31v10.57a5.78 5.78 0 0 0 5.78 5.78 5.78 5.78 0 0 0 5.78-5.78v-10.57a13.31 13.31 0 0 1 13.31-13.31H122a5.78 5.78 0 0 0 5.78-5.78 5.78 5.78 0 0 0-5.78-5.78zM395.2 341.18h-8.13A10.23 10.23 0 0 1 376.84 331v-8.13a4.44 4.44 0 0 0-4.45-4.44 4.44 4.44 0 0 0-4.44 4.44V331a10.23 10.23 0 0 1-10.23 10.23h-8.13a4.44 4.44 0 0 0-4.44 4.44 4.44 4.44 0 0 0 4.44 4.45h8.13A10.23 10.23 0 0 1 368 360.3v8.13a4.44 4.44 0 0 0 4.44 4.44 4.44 4.44 0 0 0 4.45-4.44v-8.13a10.23 10.23 0 0 1 10.23-10.23h8.13a4.44 4.44 0 0 0 4.44-4.45 4.44 4.44 0 0 0-4.49-4.44z"/></svg>