<svg version="1.1" id="Layer_1" xmlns="http://www.w3.org/2000/svg" x="0" y="0" viewBox="0 0 64 64" style="enable-background:new 0 0 64 64" xml:space="preserve"><style>.st0{fill:#231f20}</style><g id="XMLID_227_"><path id="XMLID_231_" class="st0" d="M13.89 2.4C9.76 2.4 6 4.51 3.85 8.04a11.671 11.671 0 0 0-.43 11.51l8.48 16.53v7.49l-7.41 7.41 2.83 2.83 6.59-6.59 6.59 6.59 2.83-2.83-7.41-7.41v-7.49l8.48-16.53c1.89-3.68 1.73-7.98-.43-11.51-2.18-3.53-5.94-5.64-10.08-5.64zm6.92 15.33-6.92 13.49-6.91-13.49a7.717 7.717 0 0 1 .28-7.6 7.708 7.708 0 0 1 6.63-3.72c2.73 0 5.21 1.39 6.64 3.72s1.53 5.17.28 7.6z"/><path id="XMLID_228_" class="st0" d="m47.89 39.6 14-28h-32l14 28v18h-6v4h16v-4h-6v-18zm7.53-24-9.53 19.06-9.52-19.06h19.05z"/></g></svg>